<svg xmlns="http://www.w3.org/2000/svg" xmlns:xlink="http://www.w3.org/1999/xlink" viewBox="0 0 1236.27 520.06"><defs><style>.cls-1{fill:url(#linear-gradient);}.cls-2{fill:url(#linear-gradient-2);}.cls-3{fill:url(#linear-gradient-3);}.cls-4{fill:url(#linear-gradient-4);}.cls-5{fill:url(#linear-gradient-5);}.cls-6{fill:url(#linear-gradient-6);}.cls-7{fill:url(#linear-gradient-7);}.cls-8{fill:url(#linear-gradient-8);}.cls-9{fill:url(#linear-gradient-9);}.cls-10{fill:url(#linear-gradient-10);}.cls-11{fill:url(#linear-gradient-11);}.cls-12{fill:#ef6f50;}.cls-13{fill:#ee7f3e;}.cls-14{fill:url(#linear-gradient-12);}.cls-15{fill:#ea7040;}.cls-16{fill:#eaa525;}.cls-17{fill:#e9a023;}.cls-18{fill:url(#linear-gradient-13);}</style><linearGradient id="linear-gradient" x1="618.13" x2="618.13" y2="520.06" gradientUnits="userSpaceOnUse"><stop offset="0" stop-color="#e8a924"/><stop offset="0.98" stop-color="#eb922c"/></linearGradient><linearGradient id="linear-gradient-2" x1="250.27" y1="96.31" x2="1228.2" y2="96.31" gradientUnits="userSpaceOnUse"><stop offset="0" stop-color="#eb6351"/><stop offset="0.59" stop-color="#f08239"/><stop offset="0.97" stop-color="#ea6746"/></linearGradient><linearGradient id="linear-gradient-3" x1="83.16" y1="277.7" x2="83.16" y2="520.06" xlink:href="#linear-gradient"/><linearGradient id="linear-gradient-4" x1="556.42" y1="217.89" x2="556.42" y2="446.82" xlink:href="#linear-gradient"/><linearGradient id="linear-gradient-5" x1="1160.32" y1="218.14" x2="1160.32" y2="444.36" xlink:href="#linear-gradient"/><linearGradient id="linear-gradient-6" x1="846.74" y1="280.44" x2="846.74" y2="446.38" xlink:href="#linear-gradient"/><linearGradient id="linear-gradient-7" x1="378.3" y1="280.2" x2="378.3" y2="446.18" xlink:href="#linear-gradient"/><linearGradient id="linear-gradient-8" x1="1002.24" y1="279.55" x2="1002.24" y2="443.84" xlink:href="#linear-gradient"/><linearGradient id="linear-gradient-9" x1="705.83" y1="280.02" x2="705.83" y2="443.7" xlink:href="#linear-gradient"/><linearGradient id="linear-gradient-10" x1="236.15" y1="280.03" x2="236.15" y2="443.74" xlink:href="#linear-gradient"/><linearGradient id="linear-gradient-11" x1="339.98" y1="164.19" x2="580.78" y2="164.19" gradientUnits="userSpaceOnUse"><stop offset="0" stop-color="#e76358"/><stop offset="0.59" stop-color="#e86356"/><stop offset="0.97" stop-color="#ea6746"/></linearGradient><linearGradient id="linear-gradient-12" x1="217.35" y1="164.13" x2="310.13" y2="164.13" xlink:href="#linear-gradient-11"/><linearGradient id="linear-gradient-13" x1="609.09" y1="164.4" x2="645.33" y2="164.4" xlink:href="#linear-gradient-11"/></defs><g id="Layer_2" data-name="Layer 2"><g id="Layer_1-2" data-name="Layer 1"><path class="cls-1" d="M1078.4,160c-44.12-1-88.23-1.47-132.35-2.2a31.8,31.8,0,0,1-3.9-.16c-6.5-1-10.73-4.06-10.32-11.46s4.39-10.15,11.38-10.39c13.56-.33,27.13-1.22,40.7-1.55,30.79-.81,61.59-1.3,92.38-2,46.64-1.22,93.27-2.6,140-3.82,5.44-.16,11.37-.89,11.54-7.47.24-7.64-6.34-7.64-12-7.8-20.39-.57-40.78-1.3-61.18-1.79q-48.13-1.21-96.28-2-56.41-1.09-112.85-1.87c-7.72-.08-13.57-2-13.57-11.21s6-10.89,13.73-11c20.07-.41,40.14-1.22,60.29-1.63,42.09-.81,84.25-1.38,126.42-2.19,27.87-.57,55.74-1.3,83.69-2,1.62,0,3.81.41,4.71-.41a98.64,98.64,0,0,0,7.47-8.93c-2.92-2-5.77-5.29-8.85-5.53-13.25-1.14-26.49-1.7-39.73-2q-53-1.22-106-2.11c-42.49-.73-85-1.3-127.48-2-1.3,0-2.6-.08-3.9-.08-6.66-.25-9.91-3.9-10.4-10.4-.65-9.27,3.25-12.84,14.87-13.09q49.6-1.1,99.2-1.86,83.73-1.23,167.45-2.44c3.17,0,6.91-.08,9.35-1.71s4.87-5.2,5-8c.09-1.71-4.22-4.39-6.9-5.12a81.36,81.36,0,0,0-15.36-1.79c-54-2.68-108.06-5.44-162.09-7.88q-75.67-3.4-151.52-6a69.14,69.14,0,0,0-47.62,16.41c-9.83,8.21-19.5,17.23-27.13,27.46-18.12,24.13-42.9,33.72-71.58,34-78.57.49-157.22.17-235.78.17v.08H272.91c-2.92,0-5.93-.49-8.77.16-8,2-13.49,6.91-13.82,15.36-.32,7.8,3.66,13.73,11.78,15.52a70.45,70.45,0,0,0,14.3,1.46c154.29.08,308.58-.17,462.87.16,35,.08,64.68,11.29,85,42.74,15.52,24,38.27,38.43,67.68,39,17,.4,34-1.06,51-1.79,43.31-1.95,86.69-4.06,130-5.93,34.61-1.55,69.22-2.68,103.83-4.31,13.9-.57,27.79-1.54,41.52-3.25,3.49-.49,6.42-4.55,9.67-7-3.58-2.11-7.07-6-10.64-6.17Q1147.86,161.64,1078.4,160ZM166.31,354.69c.25-41.77-46.47-86.21-100.42-75.32C22.75,288.14-5.2,331,.81,375.81c6.91,52.08,59.56,83.6,108.55,65,3.17-1.22,6.5-2.11,9.91-3.09,5.69,23.4-11.54,39.08-27,39.57-18.37.57-36.81.24-55.25.24-27.95-.08-29,1-28.28,28.93C8.94,516.94,12,520,22.91,520c24.05,0,48.1.16,72.15-.25,34.45-.49,65.32-25.27,68.65-59.47C167.13,425.29,166.15,389.87,166.31,354.69Zm-82.46,46.8c-23.4,0-39.81-17.07-39.57-41.12.32-21,17.39-37.53,39-37.53,22.18,0,39.32,17.3,39.16,39.56C122.28,384.34,105.46,401.4,83.85,401.49Zm554.27-49.81c-3.49-38.92-36.56-72.31-75.56-72.8-14.14-.16-28.27,4.23-43.79,6.75,0-16.9.08-35.1,0-53.22,0-10.65-3.25-14-13.73-14.38-5.53-.17-11.05-.17-16.58-.08-11.62.08-14.14,2.6-14.14,14.54-.08,45.09-.32,90.19.25,135.36.32,29.41,13.65,52.57,39.4,66.95,27.3,15.27,56.06,16.57,83.44.56C629.18,416.84,641.37,388.08,638.12,351.68Zm-82,49.81c-22.18.08-37.45-16.66-37.45-40.95,0-21.78,15.76-37.62,37.37-37.62,21.12-.08,39,17.55,38.84,38.19C594.65,384,578,401.4,556.14,401.49Zm679.8-55.5c-.81-51-52-82.38-98.15-60.36-2.19,1.05-4.63,1.7-7.55,2.84a56.14,56.14,0,0,1-.9-6.66c-.16-16.82-.24-33.72-.08-50.54.08-8.94-3.82-13.32-12.83-13.08-5.53.08-11-.08-16.58,0-12.51.08-15.44,3-15.44,15.52q0,96.89.09,193.69c0,12.11,4,16.09,16.25,16.25,3.57.08,7.14.08,10.72.08,15-.08,17.63-2.84,17.63-17.38,0-24.05-.24-48,.08-72.07.33-20.64,12-31.69,32.34-31.52,19,.24,29.74,11.53,29.9,31.85.08,20.06,0,40.21.08,60.28.08,29.49,1.79,31,31.36,28.76,8.94-.65,13.49-4.39,13.41-14C1235.94,401.81,1236.43,373.94,1235.94,346ZM921.84,293.1c0-7.56-4.39-12.67-13-12.59-6.18.08-12.35-.08-18.53,0-10,.16-14.13,4.3-14.22,14.13-.16,13-.08,25.92-.08,38.92s.17,26-.08,38.92c-.24,12.27-6.5,21-17.38,26-20.48,9.18-41.2-3.9-41.52-26.49-.41-24-.16-48-.16-72-.09-16.5-2.93-19.5-18.94-19.5-4.87,0-9.75-.17-14.62.08-7.72.32-11.78,4.3-11.78,12.19.24,27.21.57,54.35.57,81.57,0,22.1,8.53,40.13,25.67,53.95,22.91,18.44,48.59,22.91,75.81,12.75,26.32-9.83,43.22-30.14,46.14-57.68C922.89,353.55,921.67,323.16,921.84,293.1ZM452.71,337.46c0-10.07,0-20.15-.08-30.22,0-26.81-.16-27-27.3-26.65-13.57.16-17.14,3.74-17.14,17.39,0,24.7.24,49.31-.25,74-.32,16.74-13,28.93-29.08,29.33-17,.41-28.52-8.94-29.58-26.4-1.46-22-1.62-44-1.54-66.06.24-30,1.06-28.92-29.66-28.52-10.88.09-15,4.39-15.11,15.52,0,25.27-.08,50.62.08,76,.08,38.51,27.3,69.3,65,73.77,38.11,4.55,74.75-19.74,82.39-56.87,3.33-16.58,2.27-34.12,3.17-51.27Zm560.86,5.36c-6.75-.24-13.65-.16-20.32-1.22-7-1.13-9.18-6.49-8.53-13.08.57-6.41,5-7.63,10.4-7.63h37.05c26.08-.08,27.54-1.55,26.9-27.55v-1.95c-.25-6.9-3.91-11.13-10.81-11.21-22-.24-44.12-1.38-66,.16-23.89,1.71-38,16.25-41.85,39.08-4,23.73,6.26,46.23,27.14,54.68,12.43,5,26.24,6.59,39.49,9.35,6.17,1.38,12.91,2.11,12.67,10.4s-6.5,9.42-13.16,9.42c-13.33-.08-26.65.08-40-.08-25.11-.24-26.9-3.25-26.49,26.65.16,10.64,3,13.65,14,13.81,10.08.25,20.15.08,30.23.08v-.08c10.32,0,20.8.41,31.12-.08,18.76-.89,34.12-8.45,43-25.51C1076.94,382.31,1053.87,344,1013.57,342.82Zm-258.78-50c.25-8-3.33-12.27-11.37-12.52-7.07-.24-14.14-.32-21.21-.08-34,1.14-57.85,21.21-62.64,54.76-2.52,17.23-2,34.86-2.76,52.33h.73v39.89c.08,12,4.14,16.25,16.17,16.49,3.57.08,7.15.08,10.72,0,13.33-.08,17.39-4.14,17.47-17.38,0-24.3-.73-48.67.41-73,.32-7.31,4.22-15.43,8.77-21.44,6.42-8.54,17.06-8.37,26.81-7.89,11.78.66,17-3.41,16.9-14.62C754.79,303.83,754.63,298.3,754.79,292.78Zm-469.85-1.39c0-7.15-3.82-10.88-10.65-11.13-7.8-.32-15.6-.32-23.4.08-32.09,1.47-57.44,24.13-61.1,56-1.95,17-1.7,34.21-2.51,51.35.24,0,.48.08.81.08,0,13.57.16,27.22-.08,40.87-.17,9.26,4.63,13.9,13.16,14.71a93.14,93.14,0,0,0,18.44-.08c8.45-1,13.08-5.28,12.92-14.87-.49-22.67.57-45.42-.41-68.09-.89-22.83,11.79-38.51,34.62-36,14.62,1.62,18.28-3.74,18.28-18.36C285,301.14,284.94,296.27,284.94,291.39ZM560.77,148H460.51c-33.8,0-67.52-.08-101.23.08-3.74,0-8.13.33-11,2.28-5.53,4-10.24,9.1-7.56,17.22s8,11.54,16.74,11.54q75.93-.36,151.85,0c17.15.08,34.29,1.22,51.35,1.3,10.89.08,20.31-8.61,20.07-17.06C580.52,154.33,572.39,148,560.77,148ZM499.35,9.71q-85.68-.12-171.27.08c-3.09,0-7.56.32-8.94,2.19-3.41,5-7.88,11.13-7.31,16.33.81,7.72,7.64,12.27,16.25,12.27h85.63c28.52,0,57.12.08,85.64,0,11.7,0,17.95-5.77,17.71-15.76C516.82,16,509.67,9.71,499.35,9.71ZM265,9.63q-33.51-.26-67,0c-10,.08-17.88,7.39-17.47,15.68.41,8.61,8,15.27,18,15.43,11.05.09,22,0,33.06,0s22,.09,33-.08c8.69-.08,16.25-7.72,16.25-15.84C280.63,16.94,273.4,9.71,265,9.63Zm44.68,151.28c-1.95-8-7.31-13.41-16.81-13.08s-18.85.08-28.28.08-18.77-.08-28.19,0c-11.21.16-19.18,7.07-19,16.41C217.5,172,226,178.7,236,179c15.52.4,31,1.22,46.56,1.38a45.11,45.11,0,0,0,16.09-2.52C306.14,175.13,311.83,169.44,309.63,160.91Zm-198-80.76a387.81,387.81,0,0,0-41.35-.57c-8.13.33-12.84,5.53-13.33,13.89-.48,8.86,3.33,15.36,12.27,17.15,7.23,1.54,14.63,1.7,21.86,2.52,7.31-.74,14.54-.74,21.37-2.36a15,15,0,0,0,12-15.6C124.06,87.87,119.76,80.72,111.63,80.15Zm93-.33c-6.42-1-12.75-1.46-19.17-2.11a1.06,1.06,0,0,1-.08.49c-4.15,0-8.45-.33-12.6.08-9.34,1.06-15.76,7.31-16.16,15.19-.41,8,5.76,16.42,14.86,17.23a173.94,173.94,0,0,0,34.45-.16c7.8-.9,12.27-8,12-15.44C217.74,87.38,213.36,81,204.66,79.82ZM132.11,9.38c-7.15-.16-14.3-.16-21.45-.08C98.39,9.55,90.75,16.13,91,26c.24,8.85,9.83,16.25,20.88,15,6.74,0,13.48.16,20.31-.08,8.86-.25,16.17-7.56,16.17-15.85S141.21,9.71,132.11,9.38ZM44,9.79c-3.81-.41-7.71-.08-11.61-.08V9.3h-7.8c-10.48.25-17.88,6.91-18,16.17-.08,8,7.07,14.79,16.82,15.27a142.71,142.71,0,0,0,20.47-.08c8.53-.65,14.06-7.31,13.73-15.84S52.73,10.76,44,9.79ZM627.07,147.91c-9.75,0-18.12,7.72-18,16.66.09,8,9.35,16.16,18.61,16.33,7.23.08,17.63-9.67,17.63-16.58C645.35,155.39,637.06,147.91,627.07,147.91Z"/><path class="cls-2" d="M509.67,78c78.59,0,157.18.35,235.77-.19C774.09,77.65,798.9,68,817,43.9c7.66-10.2,17.26-19.21,27.08-27.45A69.22,69.22,0,0,1,891.79.06q75.78,2.57,151.52,6c54,2.4,108,5.17,162,7.86a80.62,80.62,0,0,1,15.39,1.84c2.7.67,7,3.39,6.89,5.07-.1,2.83-2.48,6.42-5,8.1s-6.16,1.64-9.33,1.69c-55.81.86-111.62,1.57-167.43,2.42q-49.61.77-99.23,1.83c-11.58.24-15.46,3.88-14.83,13.09.44,6.54,3.69,10.16,10.38,10.41,1.29,0,2.59.11,3.89.13q63.74,1,127.47,2,53,.91,106,2.13c13.27.32,26.55.84,39.76,2,3.09.27,5.9,3.57,8.84,5.48a100.91,100.91,0,0,1-7.46,9c-.88.86-3.12.38-4.74.42-27.87.66-55.75,1.4-83.62,1.94-42.16.81-84.33,1.41-126.49,2.22-20.08.4-40.16,1.23-60.24,1.57-7.72.14-13.67,1.73-13.72,11s5.82,11.09,13.57,11.19q56.43.78,112.84,1.85,48.14.88,96.27,2c20.4.49,40.8,1.25,61.19,1.84,5.68.16,12.22.12,12,7.75-.17,6.58-6.08,7.36-11.59,7.51-46.65,1.24-93.29,2.59-140,3.77-30.78.79-61.58,1.28-92.37,2.06-13.58.34-27.15,1.19-40.73,1.58-7,.2-11,3.08-11.37,10.36-.42,7.44,3.8,10.48,10.36,11.47a27.94,27.94,0,0,0,3.89.14c44.1.73,88.21,1.24,132.31,2.22q69.49,1.56,139,4.09c3.6.14,7.06,4,10.59,6.14-3.19,2.42-6.16,6.53-9.6,7-13.76,1.75-27.65,2.67-41.51,3.31-34.62,1.58-69.26,2.74-103.88,4.25-43.33,1.89-86.65,4-130,5.92-17,.77-34,2.19-51,1.84-29.4-.61-52.2-15-67.68-39-20.29-31.46-50-42.64-85-42.71q-231.4-.47-462.81-.23a66.62,66.62,0,0,1-14.38-1.41c-8.07-1.8-12.09-7.69-11.77-15.57.35-8.44,5.89-13.41,13.88-15.3,2.77-.66,5.82-.21,8.74-.21H509.67Z"/><path class="cls-3" d="M166.31,354.69c.25-41.77-46.47-86.21-100.42-75.32C22.75,288.14-5.2,331,.81,375.81c6.91,52.08,59.56,83.6,108.55,65,3.17-1.22,6.5-2.11,9.91-3.09,5.69,23.4-11.54,39.08-27,39.57-18.37.57-36.81.24-55.25.24-27.95-.08-29,1-28.28,28.93C8.94,516.94,12,520,22.91,520c24.05,0,48.1.16,72.15-.25,34.45-.49,65.32-25.27,68.65-59.47C167.13,425.29,166.15,389.87,166.31,354.69Zm-82.46,46.8c-23.4,0-39.81-17.07-39.57-41.12.32-21,17.39-37.53,39-37.53,22.18,0,39.32,17.3,39.16,39.56C122.28,384.34,105.46,401.4,83.85,401.49Z"/><path class="cls-4" d="M638.12,351.68c-3.49-38.92-36.56-72.31-75.56-72.8-14.14-.16-28.27,4.23-43.79,6.75,0-16.9.08-35.1,0-53.22,0-10.65-3.25-14-13.73-14.38-5.53-.17-11.05-.17-16.58-.08-11.62.08-14.14,2.6-14.14,14.54-.08,45.09-.32,90.19.25,135.36.32,29.41,13.65,52.57,39.4,66.95,27.3,15.27,56.06,16.57,83.44.56C629.18,416.84,641.37,388.08,638.12,351.68Zm-82,49.81c-22.18.08-37.45-16.66-37.45-40.95,0-21.78,15.76-37.62,37.37-37.62,21.12-.08,39,17.55,38.84,38.19C594.65,384,578,401.4,556.14,401.49Z"/><path class="cls-5" d="M1130.24,288.44c3-1.09,5.33-1.76,7.51-2.8,46.19-22,97.41,9.31,98.23,60.37.45,27.89,0,55.8.28,83.7.1,9.57-4.48,13.32-13.39,14-29.59,2.16-31.31.68-31.38-28.76,0-20.12,0-40.23-.08-60.35s-10.9-31.61-29.89-31.79c-20.35-.19-32,10.83-32.32,31.5-.35,24-.09,48-.08,72,0,14.61-2.73,17.33-17.67,17.39-3.57,0-7.14,0-10.71,0-12.29-.23-16.27-4.18-16.27-16.3q-.08-96.86-.09-193.69c0-12.49,2.95-15.41,15.48-15.55,5.52-.06,11,.15,16.56,0,9-.23,12.89,4.2,12.81,13.08-.15,16.87,0,33.74.08,50.61A55.15,55.15,0,0,0,1130.24,288.44Z"/><path class="cls-6" d="M876,333.57c0-13-.09-25.95,0-38.93.09-9.86,4.28-14,14.26-14.14,6.16-.11,12.33.11,18.5,0,8.58-.13,13,5,13,12.56-.12,30.11,1,60.43-2.09,90.27-2.9,27.58-19.84,47.89-46.19,57.73-27.17,10.15-52.89,5.63-75.73-12.77-17.21-13.86-25.68-31.84-25.69-54,0-27.18-.36-54.35-.57-81.52-.06-7.91,4.06-11.89,11.75-12.24,4.86-.22,9.74-.09,14.61-.08,16,.05,18.91,3.05,18.93,19.52,0,24-.24,48,.17,72,.38,22.54,21.08,35.67,41.55,26.42,10.88-4.91,17.16-13.7,17.38-25.94.23-13,0-26,0-38.93Z"/><path class="cls-7" d="M453.65,337.48c-.95,17.11.15,34.64-3.24,51.25-7.59,37.09-44.25,61.45-82.36,56.91-37.66-4.49-64.89-35.33-65-73.84q-.13-38,0-76c0-11.08,4.18-15.38,15.07-15.52,30.75-.39,29.9-1.47,29.7,28.5-.14,22,.08,44.1,1.48,66.07,1.11,17.47,12.66,26.85,29.63,26.45,16-.39,28.73-12.63,29.07-29.35.51-24.66.2-49.34.23-74,0-13.62,3.57-17.23,17.16-17.4,27.09-.35,27.29-.17,27.33,26.66,0,10.06,0,20.13,0,30.19Z"/><path class="cls-8" d="M984.28,443.73c-10.07,0-20.14.13-30.2,0-11-.19-13.8-3.18-14-13.82-.4-29.92,1.37-27,26.47-26.68,13.31.14,26.63,0,39.94.08,6.73,0,12.93-1.17,13.2-9.38s-6.49-9.09-12.71-10.41c-13.23-2.81-27-4.34-39.44-9.34-20.93-8.46-31.13-31-27.18-54.72,3.81-22.84,18-37.37,41.86-39.06,21.9-1.55,44-.45,66-.2,6.89.08,10.51,4.31,10.79,11.25,0,.64,0,1.29,0,1.94.62,26-.82,27.48-26.92,27.5-12.35,0-24.69.06-37,.06-5.36,0-9.83,1.22-10.43,7.6-.62,6.58,1.52,12,8.53,13.11,6.67,1.07,13.55,1,20.35,1.17,40.29,1.19,63.37,39.55,44.84,75.25-8.87,17.08-24.26,24.64-43,25.55-10.36.5-20.78.09-31.17.09Z"/><path class="cls-9" d="M656.84,387.23c.81-17.45.23-35.09,2.71-52.3,4.84-33.51,28.67-53.58,62.68-54.78,7.06-.25,14.15-.09,21.22.1,8,.22,11.6,4.59,11.36,12.53-.17,5.51,0,11,0,16.54,0,11.23-5.17,15.31-16.92,14.68-9.73-.53-20.42-.66-26.83,7.86-4.54,6-8.48,14.11-8.8,21.45-1.08,24.29-.37,48.65-.41,73,0,13.22-4.13,17.26-17.46,17.38-3.57,0-7.14.06-10.71,0-12-.25-16.12-4.44-16.14-16.48q0-20,0-39.91Z"/><path class="cls-10" d="M187.28,387.7c.78-17.13.58-34.38,2.54-51.38,3.66-31.81,29-54.48,61.11-56,7.77-.37,15.58-.37,23.35-.09,6.88.25,10.69,4,10.68,11.15,0,4.86.05,9.73.06,14.6,0,14.54-3.66,19.92-18.27,18.32-22.87-2.5-35.56,13.17-34.59,36s-.13,45.41.36,68.11c.21,9.59-4.48,13.85-12.88,14.83a89,89,0,0,1-18.46.1c-8.55-.81-13.37-5.42-13.19-14.71.27-13.62.07-27.25.07-40.87Z"/><path class="cls-11" d="M460.49,148q50.11,0,100.25,0c11.63,0,19.75,6.33,20,15.37.26,8.47-9.24,17.13-20,17.08-17.14-.07-34.27-1.29-51.4-1.36q-75.91-.3-151.83,0c-8.79,0-14-3.52-16.71-11.57s2-13.22,7.54-17.19c2.79-2,7.24-2.28,10.94-2.3C393,147.89,426.75,148,460.49,148Z"/><path class="cls-12" d="M413.7,40.6q-42.82,0-85.64,0c-8.6,0-15.43-4.53-16.27-12.29-.56-5.18,4-11.36,7.39-16.29,1.32-1.91,5.82-2.24,8.88-2.24q85.63-.18,171.29,0c10.31,0,17.5,6.3,17.72,15.06.25,10-6,15.78-17.72,15.81C470.8,40.66,442.25,40.61,413.7,40.6Z"/><path class="cls-13" d="M231.46,40.73c-11,0-22,.13-33,0-10-.14-17.58-6.77-18-15.4C180,17,187.89,9.68,197.9,9.61q33.51-.25,67,0c8.47.07,15.72,7.32,15.77,15.15.05,8.18-7.52,15.77-16.21,15.89C253.47,40.83,242.46,40.71,231.46,40.73Z"/><path class="cls-14" d="M264.58,148c9.4,0,18.82.29,28.22-.08s14.88,5.08,16.87,13c2.15,8.55-3.54,14.28-11,17a46.11,46.11,0,0,1-16.06,2.49c-15.52-.14-31-.94-46.54-1.42-10-.31-18.58-7-18.71-14.67-.15-9.32,7.8-16.25,19-16.38,9.41-.11,18.82,0,28.23,0Z"/><path class="cls-15" d="M91.05,113.12c-7.17-.76-14.63-1-21.83-2.47-8.94-1.84-12.71-8.28-12.24-17.18.45-8.35,5.16-13.58,13.31-13.85a382.75,382.75,0,0,1,41.35.51c8.12.61,12.45,7.77,12.81,15,.37,7.47-4.32,13.82-12,15.64C105.6,112.39,98.4,112.39,91.05,113.12Z"/><path class="cls-15" d="M185.5,77.67c6.38.69,12.78,1.21,19.13,2.12,8.74,1.25,13.1,7.59,13.37,15.33.26,7.48-4.26,14.51-12.06,15.38a173.63,173.63,0,0,1-34.42.21c-9.13-.81-15.32-9.21-14.89-17.22s6.84-14.12,16.21-15.17c4.15-.47,8.4-.08,12.6-.08Z"/><path class="cls-16" d="M111.87,41C100.79,42.28,91.21,34.86,91,26c-.26-9.94,7.41-16.53,19.71-16.73,7.13-.11,14.26-.12,21.39.09,9.13.28,16.34,7.34,16.32,15.69S141,40.65,132.15,40.92C125.4,41.12,118.63,41,111.87,41Z"/><path class="cls-17" d="M32.32,9.72c3.88,0,7.81-.36,11.65.07,8.8,1,13.13,6.49,13.52,15S52.33,40,43.76,40.7a152.6,152.6,0,0,1-20.4.08c-9.81-.51-17-7.25-16.86-15.3.14-9.3,7.55-15.95,18-16.14,2.6-.05,5.19,0,7.79,0Z"/><path class="cls-18" d="M627.1,147.92c9.93,0,18.25,7.49,18.23,16.43,0,6.9-10.4,16.63-17.64,16.53-9.19-.14-18.52-8.31-18.6-16.31C609,155.62,617.31,147.93,627.1,147.92Z"/></g></g></svg>