<svg xmlns="http://www.w3.org/2000/svg" xmlns:xlink="http://www.w3.org/1999/xlink" viewBox="0 0 2000 2000"><defs><style>.cls-1{fill:#e9e8de;}.cls-2{fill:url(#linear-gradient);}.cls-3{fill:url(#linear-gradient-2);}.cls-4{fill:url(#linear-gradient-3);}.cls-5{fill:url(#linear-gradient-4);}.cls-6{fill:url(#linear-gradient-5);}.cls-7{fill:url(#linear-gradient-6);}.cls-8{fill:url(#linear-gradient-7);}.cls-9{fill:url(#linear-gradient-8);}.cls-10{fill:url(#linear-gradient-9);}.cls-11{fill:url(#linear-gradient-10);}.cls-12{fill:url(#linear-gradient-11);}.cls-13{fill:#ef6f50;}.cls-14{fill:#ee7f3e;}.cls-15{fill:url(#linear-gradient-12);}.cls-16{fill:#ea7040;}.cls-17{fill:#eaa525;}.cls-18{fill:#e9a023;}.cls-19{fill:url(#linear-gradient-13);}</style><linearGradient id="linear-gradient" x1="977.43" y1="767" x2="977.43" y2="1287.06" gradientUnits="userSpaceOnUse"><stop offset="0" stop-color="#e8a924"/><stop offset="0.98" stop-color="#eb922c"/></linearGradient><linearGradient id="linear-gradient-2" x1="609.57" y1="863.31" x2="1587.5" y2="863.31" gradientUnits="userSpaceOnUse"><stop offset="0" stop-color="#eb6351"/><stop offset="0.59" stop-color="#f08239"/><stop offset="0.97" stop-color="#ea6746"/></linearGradient><linearGradient id="linear-gradient-3" x1="442.46" y1="1044.7" x2="442.46" y2="1287.06" xlink:href="#linear-gradient"/><linearGradient id="linear-gradient-4" x1="915.71" y1="984.89" x2="915.71" y2="1213.82" xlink:href="#linear-gradient"/><linearGradient id="linear-gradient-5" x1="1519.62" y1="985.14" x2="1519.62" y2="1211.36" xlink:href="#linear-gradient"/><linearGradient id="linear-gradient-6" x1="1206.04" y1="1047.44" x2="1206.04" y2="1213.39" xlink:href="#linear-gradient"/><linearGradient id="linear-gradient-7" x1="737.59" y1="1047.2" x2="737.59" y2="1213.18" xlink:href="#linear-gradient"/><linearGradient id="linear-gradient-8" x1="1361.54" y1="1046.55" x2="1361.54" y2="1210.84" xlink:href="#linear-gradient"/><linearGradient id="linear-gradient-9" x1="1065.13" y1="1047.02" x2="1065.13" y2="1210.7" xlink:href="#linear-gradient"/><linearGradient id="linear-gradient-10" x1="595.45" y1="1047.03" x2="595.45" y2="1210.74" xlink:href="#linear-gradient"/><linearGradient id="linear-gradient-11" x1="699.28" y1="931.19" x2="940.08" y2="931.19" gradientUnits="userSpaceOnUse"><stop offset="0" stop-color="#e76358"/><stop offset="0.59" stop-color="#e86356"/><stop offset="0.97" stop-color="#ea6746"/></linearGradient><linearGradient id="linear-gradient-12" x1="576.65" y1="931.13" x2="669.43" y2="931.13" xlink:href="#linear-gradient-11"/><linearGradient id="linear-gradient-13" x1="968.38" y1="931.4" x2="1004.62" y2="931.4" xlink:href="#linear-gradient-11"/></defs><g id="Layer_2" data-name="Layer 2"><g id="Layer_1-2" data-name="Layer 1"><rect class="cls-1" width="2000" height="2000"/><path class="cls-2" d="M1437.7,927c-44.12-1-88.24-1.47-132.35-2.2a31.8,31.8,0,0,1-3.9-.16c-6.5-1-10.73-4.06-10.32-11.45s4.39-10.16,11.37-10.4c13.57-.33,27.14-1.22,40.71-1.55,30.79-.81,61.58-1.3,92.38-2,46.63-1.22,93.27-2.6,140-3.82,5.44-.16,11.37-.89,11.53-7.47.25-7.64-6.33-7.64-12-7.8-20.39-.57-40.79-1.3-61.18-1.79q-48.14-1.22-96.28-2-56.43-1.1-112.85-1.87c-7.72-.08-13.57-2-13.57-11.21s6-10.89,13.73-11c20.07-.41,40.14-1.22,60.29-1.63,42.08-.81,84.25-1.38,126.42-2.19,27.87-.57,55.73-1.3,83.68-2,1.63,0,3.82.41,4.72-.41,2.76-2.68,5-5.93,7.47-8.93-2.93-1.95-5.77-5.28-8.86-5.53-13.24-1.14-26.48-1.7-39.73-2q-53-1.22-106-2.11c-42.5-.73-85-1.3-127.48-2-1.3,0-2.6-.08-3.9-.08-6.66-.25-9.91-3.9-10.4-10.4-.65-9.27,3.25-12.84,14.87-13.09q49.59-1.08,99.2-1.86,83.73-1.21,167.45-2.44c3.17,0,6.91-.08,9.34-1.71s4.88-5.2,5-8c.08-1.71-4.22-4.39-6.9-5.12a81.36,81.36,0,0,0-15.36-1.79c-54-2.68-108.06-5.44-162.09-7.88q-75.69-3.4-151.53-6a69.13,69.13,0,0,0-47.61,16.41c-9.83,8.21-19.5,17.23-27.14,27.46-18.11,24.13-42.89,33.72-71.57,34-78.57.48-157.22.16-235.79.16v.08H632.21c-2.93,0-5.93-.49-8.78.16-8,2-13.48,6.91-13.81,15.36-.32,7.8,3.66,13.73,11.78,15.52a70.37,70.37,0,0,0,14.3,1.46c154.29.08,308.58-.16,462.87.16,35,.08,64.67,11.29,85,42.74,15.51,24,38.26,38.43,67.68,39,17,.4,34-1.06,51-1.79,43.3-2,86.69-4.06,130-5.93,34.61-1.55,69.22-2.68,103.83-4.31,13.89-.57,27.79-1.54,41.52-3.25,3.49-.49,6.42-4.55,9.67-7-3.58-2.12-7.07-6-10.65-6.18Q1507.17,928.64,1437.7,927ZM525.61,1121.69c.24-41.76-46.47-86.21-100.42-75.32-43.14,8.78-71.09,51.59-65.08,96.44,6.9,52.08,59.55,83.61,108.55,65,3.16-1.22,6.5-2.11,9.91-3.09,5.69,23.4-11.54,39.08-27.06,39.57-18.36.57-36.8.24-55.25.24-27.95-.08-29,1-28.27,28.93.24,10.48,3.33,13.57,14.22,13.57,24.05,0,48.1.16,72.15-.25,34.45-.48,65.32-25.27,68.65-59.47C526.42,1192.29,525.45,1156.87,525.61,1121.69Zm-82.47,46.8c-23.4,0-39.81-17.07-39.56-41.12.32-21,17.38-37.53,39-37.53,22.18,0,39.32,17.3,39.16,39.57C481.57,1151.34,464.76,1168.4,443.14,1168.49Zm554.28-49.81c-3.5-38.92-36.56-72.31-75.56-72.8-14.14-.16-28.28,4.23-43.8,6.75,0-16.9.08-35.1,0-53.22,0-10.64-3.25-14-13.73-14.38-5.52-.16-11.05-.16-16.57-.08-11.62.08-14.14,2.6-14.14,14.54-.08,45.09-.32,90.19.25,135.36.32,29.41,13.64,52.57,39.4,67,27.3,15.27,56.06,16.57,83.44.57C988.48,1183.84,1000.67,1155.08,997.42,1118.68Zm-82,49.81c-22.18.08-37.46-16.66-37.46-41,0-21.78,15.76-37.62,37.38-37.62,21.12-.08,39,17.55,38.83,38.19C954,1151,937.29,1168.4,915.44,1168.49Zm679.8-55.5c-.81-51-52-82.38-98.15-60.36-2.19,1-4.63,1.7-7.56,2.84a57.65,57.65,0,0,1-.89-6.66c-.16-16.82-.24-33.72-.08-50.54.08-8.94-3.82-13.32-12.84-13.08-5.52.08-11-.08-16.57,0-12.51.08-15.44,3-15.44,15.52q0,96.88.08,193.69c0,12.11,4,16.09,16.25,16.25,3.58.08,7.15.08,10.73.08,15-.08,17.63-2.84,17.63-17.38,0-24-.25-48,.08-72.07.32-20.64,12-31.69,32.34-31.52,19,.24,29.73,11.53,29.89,31.85.09,20.06,0,40.21.09,60.28.08,29.5,1.78,31,31.36,28.76,8.93-.65,13.48-4.38,13.4-14C1595.24,1168.81,1595.73,1140.94,1595.24,1113Zm-314.11-52.89c0-7.55-4.38-12.67-13-12.59-6.17.08-12.34-.08-18.52,0-10,.16-14.14,4.3-14.22,14.14-.16,13-.08,25.91-.08,38.91s.16,26-.08,38.92c-.24,12.27-6.5,21-17.39,26-20.47,9.18-41.19-3.9-41.52-26.49-.4-24-.16-48-.16-72-.08-16.5-2.92-19.5-18.93-19.5-4.87,0-9.75-.16-14.62.08-7.72.32-11.78,4.3-11.78,12.19.24,27.21.56,54.35.56,81.57,0,22.1,8.54,40.14,25.68,54,22.91,18.44,48.58,22.91,75.8,12.75,26.33-9.83,43.23-30.14,46.15-57.68C1282.19,1120.55,1281,1090.16,1281.13,1060.1ZM812,1104.46c0-10.07,0-20.15-.08-30.22,0-26.81-.16-27-27.3-26.65-13.57.16-17.14,3.74-17.14,17.39,0,24.7.24,49.31-.25,74-.32,16.74-13,28.93-29.09,29.33-17,.41-28.51-8.93-29.57-26.4-1.46-22-1.62-44-1.54-66.06.24-30,1.05-28.92-29.66-28.51-10.89.08-15,4.38-15.11,15.51,0,25.27-.08,50.62.08,76,.08,38.51,27.3,69.3,65,73.77,38.1,4.55,74.75-19.74,82.38-56.87,3.34-16.58,2.28-34.12,3.17-51.27Zm560.85,5.37c-6.74-.25-13.65-.17-20.31-1.22-7-1.14-9.18-6.5-8.53-13.08.57-6.42,5-7.64,10.4-7.64h37c26.08-.08,27.54-1.55,26.89-27.55v-1.94c-.24-6.91-3.9-11.14-10.8-11.22-22-.24-44.12-1.38-66,.17-23.88,1.7-38,16.24-41.84,39.08-4,23.72,6.26,46.23,27.14,54.67,12.43,5,26.24,6.59,39.48,9.35,6.18,1.38,12.92,2.11,12.68,10.4s-6.5,9.42-13.16,9.42c-13.33-.08-26.65.08-40-.08-25.1-.24-26.89-3.25-26.48,26.65.16,10.65,3,13.65,14,13.81,10.07.25,20.15.08,30.22.08v-.08c10.32,0,20.8.41,31.12-.08,18.77-.89,34.13-8.45,43-25.51C1436.24,1149.31,1413.16,1111,1372.86,1109.83Zm-258.77-50c.24-8-3.33-12.27-11.38-12.52-7.06-.24-14.13-.32-21.2-.08-34,1.14-57.85,21.21-62.64,54.76-2.52,17.23-2,34.86-2.77,52.33h.73v39.89c.09,12,4.15,16.25,16.17,16.49,3.58.08,7.15.08,10.73,0,13.32-.08,17.39-4.14,17.47-17.38,0-24.3-.74-48.67.4-73,.33-7.32,4.23-15.44,8.78-21.45,6.42-8.54,17.06-8.37,26.81-7.88,11.78.65,17-3.42,16.9-14.63C1114.09,1070.83,1113.93,1065.3,1114.09,1059.78Zm-469.86-1.38c0-7.15-3.82-10.89-10.64-11.14-7.8-.32-15.6-.32-23.4.09-32.09,1.46-57.44,24.13-61.1,56-2,17-1.7,34.2-2.52,51.34.25,0,.49.08.82.08,0,13.57.16,27.22-.09,40.87-.16,9.27,4.63,13.9,13.17,14.71a93.14,93.14,0,0,0,18.44-.08c8.45-1,13.08-5.28,12.92-14.87-.49-22.67.57-45.42-.41-68.09-.89-22.83,11.78-38.51,34.61-36,14.63,1.63,18.28-3.74,18.28-18.36C644.31,1068.14,644.23,1063.27,644.23,1058.4ZM920.07,915H819.81c-33.8,0-67.52-.08-101.24.08-3.73,0-8.12.33-11,2.28-5.53,4-10.24,9.1-7.56,17.22s8,11.54,16.74,11.54q75.91-.36,151.85,0c17.14.08,34.29,1.22,51.35,1.3,10.89.08,20.31-8.61,20.07-17.06C939.81,921.33,931.69,915,920.07,915ZM858.65,776.71q-85.68-.12-171.28.08c-3.08,0-7.55.32-8.93,2.19-3.41,5-7.88,11.13-7.31,16.33.81,7.72,7.63,12.27,16.24,12.27H773c28.52,0,57.12.08,85.64,0,11.7,0,18-5.77,17.71-15.76C876.11,783.05,869,776.71,858.65,776.71Zm-234.4-.08q-33.53-.24-67,0c-10,.08-17.88,7.39-17.47,15.68.4,8.61,8,15.27,18,15.44,11,.08,22,0,33.07,0s22,.08,33-.09c8.69-.08,16.25-7.71,16.25-15.84C639.93,783.94,632.7,776.71,624.25,776.63Zm44.68,151.28c-1.95-8-7.31-13.4-16.82-13.08s-18.85.08-28.27.08-18.77-.08-28.19,0c-11.22.16-19.18,7.07-19,16.41.17,7.64,8.7,14.38,18.69,14.71,15.52.41,31,1.22,46.56,1.38A45,45,0,0,0,658,944.89C665.44,942.13,671.13,936.44,668.93,927.91Zm-198-80.76a390.46,390.46,0,0,0-41.35-.57c-8.13.33-12.84,5.53-13.33,13.9-.49,8.85,3.33,15.35,12.27,17.14,7.23,1.54,14.62,1.7,21.86,2.52,7.31-.73,14.54-.73,21.36-2.36a15,15,0,0,0,12-15.6C483.36,854.87,479.06,847.72,470.93,847.15Zm93-.32c-6.42-1-12.76-1.47-19.17-2.12a.93.93,0,0,1-.09.49c-4.14,0-8.45-.32-12.59.08-9.34,1.06-15.76,7.31-16.17,15.2s5.77,16.41,14.87,17.22a173.94,173.94,0,0,0,34.45-.16c7.8-.9,12.27-8,12-15.44C577,854.38,572.65,848,564,846.83Zm-72.55-70.45c-7.15-.16-14.3-.16-21.45-.08-12.27.25-19.91,6.83-19.67,16.74.25,8.85,9.83,16.25,20.88,15,6.75,0,13.49.16,20.32-.08,8.85-.25,16.16-7.56,16.16-15.85S500.5,776.71,491.41,776.38Zm-88.16.41c-3.82-.41-7.72-.08-11.62-.08v-.41h-7.8c-10.48.25-17.87,6.91-18,16.17-.09,8,7.06,14.79,16.81,15.28a144.32,144.32,0,0,0,20.48-.09c8.53-.65,14.05-7.31,13.73-15.84S412,777.76,403.25,776.79ZM986.37,914.91c-9.75,0-18.12,7.72-18,16.66.08,8,9.34,16.17,18.61,16.33,7.23.08,17.63-9.67,17.63-16.58C1004.65,922.39,996.36,914.91,986.37,914.91Z"/><path class="cls-3" d="M869,845c78.6,0,157.19.35,235.78-.18,28.65-.2,53.46-9.81,71.6-34,7.66-10.19,17.26-19.21,27.08-27.45a69.22,69.22,0,0,1,47.67-16.39q75.77,2.57,151.52,6c54,2.4,108,5.17,162.05,7.86a80.71,80.71,0,0,1,15.39,1.84c2.7.67,7,3.4,6.89,5.07-.1,2.83-2.48,6.42-5,8.1s-6.16,1.64-9.34,1.69c-55.8.86-111.61,1.57-167.42,2.42q-49.62.76-99.23,1.83c-11.58.24-15.46,3.88-14.83,13.09.44,6.54,3.69,10.16,10.37,10.42,1.3,0,2.6.1,3.9.12q63.73,1,127.46,2,53,.91,106,2.13c13.26.32,26.55.84,39.76,2,3.08.27,5.9,3.57,8.84,5.48a102.51,102.51,0,0,1-7.46,9c-.88.85-3.12.37-4.74.41-27.88.66-55.75,1.4-83.63,1.94-42.16.81-84.32,1.41-126.48,2.23-20.09.39-40.16,1.22-60.25,1.57-7.71.13-13.66,1.72-13.71,11s5.81,11.09,13.57,11.19q56.42.78,112.84,1.85,48.13.88,96.27,2c20.4.49,40.79,1.24,61.19,1.83,5.68.16,12.22.12,12,7.75-.16,6.58-6.07,7.36-11.58,7.51-46.65,1.24-93.3,2.59-140,3.77-30.79.79-61.58,1.28-92.37,2.06-13.58.34-27.15,1.19-40.73,1.58-7,.21-11,3.08-11.37,10.36-.43,7.44,3.8,10.48,10.35,11.47a29.79,29.79,0,0,0,3.9.15c44.1.72,88.21,1.23,132.31,2.21q69.49,1.56,139,4.1c3.6.13,7.06,4,10.59,6.13-3.19,2.42-6.16,6.54-9.6,7-13.76,1.75-27.65,2.67-41.52,3.31-34.61,1.58-69.25,2.74-103.87,4.25-43.33,1.89-86.65,4-130,5.93-17,.76-34,2.18-51,1.83-29.41-.61-52.2-15-67.68-39-20.3-31.45-50-42.63-85-42.71q-231.4-.46-462.81-.23a66.62,66.62,0,0,1-14.38-1.41c-8.07-1.8-12.1-7.69-11.77-15.57.35-8.44,5.89-13.4,13.88-15.3,2.77-.66,5.82-.2,8.74-.21H869Z"/><path class="cls-4" d="M525.61,1121.69c.24-41.76-46.47-86.21-100.42-75.32-43.14,8.78-71.09,51.59-65.08,96.44,6.9,52.08,59.55,83.61,108.55,65,3.16-1.22,6.5-2.11,9.91-3.09,5.69,23.4-11.54,39.08-27.06,39.57-18.36.57-36.8.24-55.25.24-27.95-.08-29,1-28.27,28.93.24,10.48,3.33,13.57,14.22,13.57,24.05,0,48.1.16,72.15-.25,34.45-.48,65.32-25.27,68.65-59.47C526.42,1192.29,525.45,1156.87,525.61,1121.69Zm-82.47,46.8c-23.4,0-39.81-17.07-39.56-41.12.32-21,17.38-37.53,39-37.53,22.18,0,39.32,17.3,39.16,39.57C481.57,1151.34,464.76,1168.4,443.14,1168.49Z"/><path class="cls-5" d="M997.42,1118.68c-3.5-38.92-36.56-72.31-75.56-72.8-14.14-.16-28.28,4.23-43.8,6.75,0-16.9.08-35.1,0-53.22,0-10.64-3.25-14-13.73-14.38-5.52-.16-11.05-.16-16.57-.08-11.62.08-14.14,2.6-14.14,14.54-.08,45.09-.32,90.19.25,135.36.32,29.41,13.64,52.57,39.4,67,27.3,15.27,56.06,16.57,83.44.57C988.48,1183.84,1000.67,1155.08,997.42,1118.68Zm-82,49.81c-22.18.08-37.46-16.66-37.46-41,0-21.78,15.76-37.62,37.38-37.62,21.12-.08,39,17.55,38.83,38.19C954,1151,937.29,1168.4,915.44,1168.49Z"/><path class="cls-6" d="M1489.54,1055.45c3-1.1,5.33-1.76,7.51-2.81,46.19-22,97.41,9.31,98.23,60.37.45,27.9,0,55.8.27,83.7.11,9.57-4.48,13.33-13.38,14-29.6,2.16-31.31.68-31.38-28.76,0-20.12,0-40.23-.09-60.34s-10.89-31.62-29.88-31.8c-20.35-.19-32,10.83-32.32,31.5-.36,24-.09,48-.08,72,0,14.61-2.73,17.33-17.67,17.39-3.57,0-7.14,0-10.71,0-12.3-.23-16.27-4.18-16.28-16.3q-.06-96.86-.08-193.69c0-12.49,3-15.41,15.48-15.55,5.52-.06,11,.15,16.55,0,9-.23,12.9,4.2,12.82,13.08-.15,16.87,0,33.74.08,50.61A55.26,55.26,0,0,0,1489.54,1055.45Z"/><path class="cls-7" d="M1235.34,1100.57c0-13-.09-26,0-38.93.09-9.86,4.28-14,14.26-14.14,6.16-.11,12.33.11,18.49,0,8.59-.13,13,5,13,12.56-.13,30.11,1.05,60.43-2.09,90.27-2.9,27.59-19.85,47.89-46.19,57.73-27.18,10.16-52.9,5.64-75.74-12.77-17.2-13.86-25.67-31.83-25.69-54,0-27.17-.35-54.35-.56-81.52-.06-7.91,4.06-11.89,11.75-12.24,4.86-.22,9.73-.09,14.6-.07,16,0,18.92,3,18.93,19.51,0,24-.23,48,.18,72,.38,22.54,21.08,35.67,41.55,26.42,10.87-4.91,17.16-13.7,17.38-25.94.23-13,0-26,0-38.93Z"/><path class="cls-8" d="M812.94,1104.48c-.94,17.11.16,34.64-3.24,51.25-7.58,37.09-44.24,61.45-82.35,56.91-37.66-4.49-64.89-35.33-65-73.83q-.15-38,0-76c0-11.08,4.18-15.38,15.07-15.52,30.74-.39,29.9-1.47,29.7,28.5-.15,22,.08,44.11,1.47,66.07,1.11,17.47,12.67,26.85,29.64,26.45,16-.38,28.73-12.63,29.07-29.35.5-24.66.2-49.34.23-74,0-13.62,3.57-17.23,17.16-17.4,27.09-.35,27.28-.17,27.33,26.66q0,15.09,0,30.19Z"/><path class="cls-9" d="M1343.58,1210.73c-10.07,0-20.14.13-30.21,0-11-.18-13.8-3.18-13.94-13.82-.4-29.92,1.36-27,26.46-26.68,13.32.14,26.64,0,39.95.09,6.73,0,12.93-1.18,13.2-9.39s-6.49-9.09-12.71-10.41c-13.24-2.8-27-4.34-39.44-9.34-20.93-8.46-31.14-31-27.18-54.72,3.81-22.84,18-37.37,41.85-39.06,21.9-1.55,44-.45,66-.19,6.9.08,10.52,4.31,10.8,11.24,0,.65,0,1.3,0,1.94.63,26-.81,27.49-26.92,27.5-12.34,0-24.68.06-37,.06-5.36,0-9.83,1.22-10.43,7.6-.62,6.58,1.51,12,8.52,13.11,6.68,1.07,13.56,1,20.35,1.17,40.3,1.19,63.38,39.56,44.84,75.25-8.86,17.08-24.26,24.64-43,25.55-10.37.5-20.78.09-31.17.09Z"/><path class="cls-10" d="M1016.14,1154.23c.8-17.45.23-35.09,2.71-52.3,4.84-33.51,28.67-53.57,62.68-54.78,7.06-.25,14.15-.09,21.21.1,8,.22,11.61,4.59,11.37,12.53-.17,5.51,0,11,0,16.54,0,11.24-5.16,15.31-16.91,14.68-9.74-.53-20.42-.66-26.83,7.86-4.54,6-8.48,14.11-8.8,21.45-1.09,24.29-.37,48.65-.42,73,0,13.23-4.13,17.26-17.45,17.38-3.57,0-7.14.06-10.71,0-12-.25-16.12-4.44-16.14-16.48q0-20,0-39.91Z"/><path class="cls-11" d="M546.58,1154.7c.77-17.13.58-34.38,2.54-51.37,3.66-31.82,29-54.49,61.1-56,7.77-.37,15.58-.37,23.36-.09,6.87.25,10.69,4,10.68,11.15,0,4.87,0,9.73,0,14.6,0,14.54-3.65,19.92-18.26,18.32-22.87-2.5-35.56,13.17-34.59,36s-.13,45.41.36,68.11c.2,9.59-4.49,13.85-12.89,14.83a88.2,88.2,0,0,1-18.45.1c-8.55-.81-13.37-5.42-13.19-14.7.27-13.62.07-27.25.07-40.88Z"/><path class="cls-12" d="M819.79,915q50.12,0,100.24,0c11.64,0,19.76,6.33,20,15.36.27,8.47-9.23,17.13-20.05,17.08-17.13-.07-34.26-1.29-51.39-1.36q-75.92-.3-151.83,0c-8.79,0-14-3.51-16.71-11.56s2-13.23,7.54-17.2c2.79-2,7.24-2.28,10.94-2.3C752.31,914.89,786.05,915,819.79,915Z"/><path class="cls-13" d="M773,807.6q-42.82,0-85.64,0c-8.6,0-15.43-4.53-16.27-12.29-.57-5.17,4-11.36,7.39-16.29,1.32-1.91,5.82-2.24,8.88-2.24q85.64-.18,171.28,0c10.32,0,17.5,6.3,17.73,15.06.25,10-6,15.78-17.73,15.81C830.1,807.66,801.55,807.61,773,807.6Z"/><path class="cls-14" d="M590.75,807.73c-11,0-22,.13-33,0-10-.15-17.59-6.77-18-15.41-.39-8.26,7.46-15.62,17.47-15.69q33.49-.25,67,0c8.48.06,15.73,7.31,15.78,15.14,0,8.18-7.52,15.77-16.22,15.89C612.77,807.83,601.76,807.71,590.75,807.73Z"/><path class="cls-15" d="M623.87,915c9.41,0,18.83.29,28.22-.08S667,920,669,927.87c2.15,8.55-3.54,14.28-11,17a46.07,46.07,0,0,1-16.06,2.49c-15.51-.14-31-.93-46.53-1.42-10-.31-18.58-7-18.71-14.67-.15-9.31,7.8-16.25,19-16.38,9.4-.1,18.81,0,28.22,0Z"/><path class="cls-16" d="M450.35,880.12c-7.17-.76-14.63-1-21.83-2.47-8.94-1.84-12.72-8.28-12.24-17.18.45-8.35,5.16-13.58,13.31-13.85a382.75,382.75,0,0,1,41.35.51c8.12.61,12.45,7.78,12.81,15a15,15,0,0,1-12,15.64C464.89,879.39,457.69,879.39,450.35,880.12Z"/><path class="cls-16" d="M544.8,844.67c6.38.69,12.78,1.21,19.13,2.12,8.74,1.25,13.1,7.6,13.36,15.33.26,7.48-4.26,14.51-12,15.38a173.63,173.63,0,0,1-34.42.21c-9.14-.81-15.32-9.21-14.89-17.22s6.84-14.12,16.21-15.17c4.15-.47,8.4-.08,12.6-.08Z"/><path class="cls-17" d="M471.17,808c-11.08,1.32-20.66-6.1-20.89-14.92-.26-9.94,7.41-16.53,19.71-16.72,7.12-.12,14.26-.13,21.39.08,9.13.28,16.33,7.35,16.31,15.69s-7.38,15.56-16.24,15.83C484.7,808.12,477.93,808,471.17,808Z"/><path class="cls-18" d="M391.61,776.72c3.89,0,7.82-.36,11.66.08,8.79,1,13.13,6.48,13.52,15S411.63,807,403.06,807.7a152.74,152.74,0,0,1-20.41.08c-9.8-.5-17-7.25-16.85-15.29.14-9.31,7.55-16,18-16.15,2.59-.05,5.19,0,7.78,0Z"/><path class="cls-19" d="M986.39,914.92c9.94,0,18.25,7.49,18.23,16.43,0,6.91-10.39,16.63-17.63,16.53-9.2-.13-18.52-8.31-18.61-16.31C968.29,922.62,976.61,914.93,986.39,914.92Z"/></g></g></svg>